PathFileType	4	(X/Y/Z)	D:\TRACE\v60_Jaco2_6-2-23\JustBodyDRS_Motion2_3-platform.trc
DataRate	CameraRate	NumFrames	NumMarkers	Units	OrigDataRate	OrigDataStartFrame	OrigNumFrames
100.00	100.00	      72	5	mm	100.00	4272	      6834
Frame#	Time	Left_Front			Right_Front			Left_Aft			Right_Aft			Post			
		X1	Y1	Z1	X2	Y2	Z2	X3	Y3	Z3	X4	Y4	Z4	X5	Y5	Z5	

4272	42.710	-784.09747	59.97928	-624.52869	786.05310	61.01752	-629.65344	-692.19202	-28.23918	507.13989	750.04370	-30.69343	516.53333	2.69518	1379.97156	-844.61475	
4273	42.720	-785.42285	59.25041	-625.15198	784.84802	59.96267	-630.06732	-693.49884	-27.65158	507.00436	748.68060	-30.08119	516.49249	1.25597	1378.49463	-846.22559	
4274	42.730	-786.41840	58.75355	-625.42322	783.85333	59.09531	-630.08850	-694.35565	-27.15341	506.75253	747.74426	-29.38194	516.39667	0.31392	1377.46277	-848.47223	
4275	42.740	-787.25818	57.22205	-625.32996	782.85553	58.34455	-630.49487	-695.44513	-26.31867	506.69226	746.79340	-28.73419	516.38202	-0.57980	1376.45496	-850.93811	
4276	42.750	-788.32819	56.26974	-625.70068	781.62231	57.45102	-630.85559	-696.49054	-25.71151	506.64005	745.88525	-28.14059	516.18646	-1.51097	1375.00793	-854.04584	
4277	42.760	-789.64423	55.69503	-626.01788	780.50262	56.36720	-631.19080	-697.71161	-24.90762	506.11420	744.33673	-27.50985	516.10046	-3.07371	1373.71265	-857.07098	
4278	42.770	-790.67322	54.59905	-626.40527	779.46008	55.30178	-631.33984	-698.77979	-24.27094	506.05505	743.08453	-26.45071	515.55121	-4.17198	1372.53040	-860.40540	
4279	42.780	-791.68726	53.40672	-626.60370	778.36224	54.45900	-631.72107	-699.83447	-23.65336	505.91965	742.50098	-25.71072	515.38202	-4.93096	1371.23523	-862.91113	
4280	42.790	-792.65112	52.34198	-627.06250	777.25397	53.19131	-632.12512	-701.05853	-22.79604	505.48636	741.21283	-25.04970	515.15369	-5.94554	1369.74341	-865.12726	
4281	42.800	-793.93079	51.42925	-627.32922	776.47430	52.31324	-632.36700	-701.97443	-22.13255	505.51355	740.42499	-24.31201	514.87506	-6.83396	1368.50122	-867.58191	
4282	42.810	-795.07855	50.33168	-627.46686	775.15979	51.07895	-632.77466	-703.00934	-21.17913	505.12842	739.58441	-23.28024	514.70667	-8.19198	1366.97729	-869.64960	
4283	42.820	-796.09033	49.27100	-627.90466	773.96301	50.14786	-632.97919	-704.19275	-20.45772	504.99951	738.12891	-22.48976	514.43195	-9.58699	1365.31250	-871.26630	
4284	42.830	-797.17401	48.03877	-628.41620	772.83435	49.06411	-633.43414	-705.49329	-19.51900	504.72815	737.03540	-21.65664	514.27954	-10.33500	1363.73865	-873.03375	
4285	42.840	-798.28339	46.71960	-628.74414	771.72894	47.65587	-633.72247	-706.44305	-18.95325	504.69119	735.67511	-20.80925	513.96222	-11.20074	1361.85010	-875.17200	
4286	42.850	-799.67688	45.94239	-628.82788	770.54578	46.77044	-633.93280	-707.64246	-17.76746	504.29449	735.20587	-19.32233	513.46869	-13.02291	1360.29797	-877.55176	
4287	42.860	-800.66632	44.62341	-629.34058	769.51160	45.50312	-634.32013	-708.73035	-17.16601	504.28348	733.51624	-18.64820	513.29083	-14.23275	1358.95667	-880.75848	
4288	42.870	-801.79102	43.35798	-629.77972	768.38959	44.43412	-634.76984	-709.76886	-16.20241	504.07095	732.73328	-17.83455	513.21320	-15.18183	1357.21936	-883.93085	
4289	42.880	-802.81421	42.16451	-629.86743	767.40405	43.19405	-635.01831	-710.86810	-15.30817	503.90067	731.25299	-17.18575	512.94385	-16.10572	1355.71216	-887.12518	
4290	42.890	-804.06848	40.71878	-630.30566	766.12061	41.81150	-635.47577	-712.06561	-14.58802	503.55804	730.06519	-16.46091	512.66327	-17.24739	1353.72827	-890.55573	
4291	42.900	-805.19141	39.66524	-630.83258	764.98157	40.44944	-635.73212	-713.22388	-13.68367	503.33441	729.04468	-15.25941	512.37823	-18.43941	1352.08093	-894.14288	
4292	42.910	-806.34949	38.47082	-631.08453	763.84192	39.25054	-636.12006	-714.24988	-12.70560	502.92822	728.20001	-14.18291	512.18134	-19.44094	1350.36035	-897.30212	
4293	42.920	-807.30658	37.31859	-631.48944	762.53674	37.97752	-636.70117	-715.53870	-11.71978	502.72705	726.81189	-13.46194	511.99506	-20.76155	1348.45056	-900.16785	
4294	42.930	-808.58850	35.97309	-631.24146	761.53693	36.92013	-636.79456	-716.72156	-10.86258	502.36890	725.68927	-12.43051	511.79926	-21.90721	1346.56262	-903.15106	
4295	42.940	-809.74744	34.60012	-632.31580	760.27692	35.18748	-637.17804	-717.94971	-10.01418	502.03482	724.74310	-11.37499	511.39032	-22.86133	1344.69153	-905.75037	
4296	42.950	-810.76050	32.94090	-632.77600	759.31030	33.53395	-637.60944	-718.94226	-8.87117	501.72192	723.21716	-10.48169	511.02017	-24.33162	1342.76929	-908.32867	
4297	42.960	-811.98865	31.31393	-633.02838	758.17914	32.51768	-637.96094	-720.08875	-8.20831	501.41342	722.29382	-9.41658	510.76974	-25.75157	1340.93958	-910.99304	
4298	42.970	-813.12695	30.52960	-633.26410	757.16931	31.23323	-638.18036	-721.29755	-7.09776	501.13455	720.81219	-8.46279	510.63379	-26.71051	1339.05359	-913.55670	
4299	42.980	-814.30115	29.51522	-633.66199	755.92792	30.05367	-638.87805	-722.15454	-6.27476	501.03171	720.00024	-7.41972	510.23114	-27.58789	1337.08630	-916.48608	
4300	42.990	-815.29791	27.74415	-633.93225	754.91925	28.46479	-638.93475	-723.84491	-4.70815	500.28250	718.68982	-6.59753	510.05020	-28.50389	1335.30103	-919.63177	
4301	43.000	-816.31470	26.21669	-634.40491	753.85388	27.31864	-639.15839	-724.59479	-4.47878	500.38022	717.65338	-5.74783	509.80206	-29.88527	1333.29187	-923.05463	
4302	43.010	-817.84406	24.92925	-634.76227	752.50488	25.88164	-639.91595	-725.97864	-3.41377	500.01807	716.39880	-4.77598	509.57236	-31.26715	1331.40356	-926.07263	
4303	43.020	-818.80133	23.58022	-635.06305	751.33905	24.41079	-640.22125	-726.93774	-2.48570	500.06311	715.11157	-3.74722	509.33771	-32.34404	1329.45703	-929.10944	
4304	43.030	-819.86182	22.63090	-635.23584	750.22626	23.17488	-640.38104	-727.98444	-1.54699	499.64957	714.38116	-2.60895	509.06503	-33.43887	1327.66504	-932.13483	
4305	43.040	-820.84790	21.21184	-635.85706	749.14032	21.89426	-640.82928	-729.23877	-0.33109	499.39871	713.01556	-1.59472	508.79294	-34.52141	1325.27246	-935.75470	
4306	43.050	-822.03674	19.40057	-636.03760	748.17377	20.46655	-641.24060	-730.46198	0.86752	499.00024	712.08588	-0.82340	508.44998	-35.64205	1323.48792	-938.61249	
4307	43.060	-823.33563	17.77266	-636.46002	747.05249	19.02938	-641.54938	-731.77832	1.81041	498.72150	710.70087	0.03662	507.80441	-36.63057	1321.31189	-941.40332	
4308	43.070	-824.34180	16.59532	-637.05896	746.05847	17.48979	-641.84418	-733.01556	3.14891	498.23236	709.52386	0.96056	507.48575	-37.78004	1319.25745	-944.46552	
4309	43.080	-825.09998	15.11252	-637.37775	744.77936	16.02437	-642.19318	-733.17725	3.33640	497.80566	708.64972	2.10939	507.08517	-38.81318	1316.96289	-947.40363	
4310	43.090	-826.21283	13.87770	-637.56317	743.75061	14.58592	-642.69458	-734.60602	4.72656	497.53210	707.34155	3.41339	507.23184	-40.04833	1315.07190	-950.70117	
4311	43.100	-827.49023	12.26528	-637.87311	742.82721	13.38579	-642.90875	-735.41632	5.47965	497.18219	706.65967	4.56443	506.92148	-41.15265	1312.80054	-954.18170	
4312	43.110	-828.62714	10.52114	-638.10327	741.74860	11.64534	-643.30298	-736.59729	6.64793	496.95261	705.59058	5.62712	506.49213	-42.01430	1310.99280	-957.81384	
4313	43.120	-829.52838	9.52036	-638.49927	740.73511	10.42271	-643.58179	-737.13745	6.88185	496.62192	704.65491	6.45732	505.99835	-42.68679	1308.61487	-961.16492	
4314	43.130	-830.21985	8.02978	-638.95178	739.66809	8.97785	-643.90479	-738.26703	7.75645	496.18219	703.46735	7.50097	505.56250	-44.00869	1306.66333	-964.31573	
4315	43.140	-831.44037	6.53630	-639.33673	738.66010	7.51711	-644.10883	-739.30652	8.74352	496.02890	702.61255	8.58456	505.30978	-45.49148	1304.75586	-967.39514	
4316	43.150	-832.71417	5.42002	-639.28656	737.58936	6.24202	-644.57855	-740.34509	9.94543	495.72293	701.93561	9.63241	505.01672	-46.24371	1302.66077	-970.34924	
4317	43.160	-833.49310	3.71235	-639.69775	736.83527	5.03171	-644.95453	-741.20679	11.00840	495.40347	700.72150	10.86602	504.64642	-47.23607	1300.42432	-973.25250	
4318	43.170	-834.41449	2.57711	-640.20819	735.70831	3.40813	-645.27454	-742.25977	11.97757	495.02957	699.93903	11.80323	504.02982	-48.46720	1298.69360	-976.03119	
4319	43.180	-835.25732	1.08635	-640.43188	734.66345	2.00864	-645.66675	-743.26318	12.94659	494.59451	698.85773	12.71064	503.65656	-49.13389	1296.28625	-978.61218	
4320	43.190	-836.19434	-0.52280	-640.78119	733.69745	0.55755	-645.95557	-744.32312	14.17904	494.20065	697.49890	13.62019	502.87396	-49.97893	1294.13989	-981.16602	
4321	43.200	-837.34753	-1.79926	-641.03882	733.02832	-0.67261	-646.12408	-745.17889	15.05562	494.01520	697.07678	14.53950	503.14783	-51.06881	1292.09827	-983.84729	
4322	43.210	-838.28662	-2.82155	-641.49646	732.14636	-2.15557	-646.57935	-746.05200	16.10622	493.69711	696.01282	15.48687	502.95007	-52.14829	1290.08813	-986.86755	
4323	43.220	-839.07483	-4.66559	-641.57959	731.28418	-3.32801	-646.74316	-746.85370	16.99006	493.33118	695.05676	16.40689	502.61539	-53.15467	1288.01343	-989.79694	
4324	43.230	-839.71570	-6.02900	-641.94385	730.43219	-4.85448	-647.03864	-747.72375	17.92026	492.98212	694.51385	17.61780	502.19077	-53.69106	1285.81689	-993.39099	
4325	43.240	-840.57965	-7.15286	-642.47552	729.58673	-6.38730	-647.20569	-748.53326	18.72698	492.65210	693.26782	18.39428	501.73785	-54.50998	1283.81958	-996.60449	
4326	43.250	-841.40033	-8.94243	-642.57642	728.85254	-7.58681	-647.59863	-749.22913	19.68533	492.22989	692.57672	19.28194	501.44739	-55.53130	1281.80627	-999.98450	
4327	43.260	-842.25049	-10.34080	-642.90240	727.74597	-8.93047	-647.98950	-750.04980	20.42286	491.90012	691.99408	20.21111	501.10562	-56.30301	1279.60046	-1003.01788	
4328	43.270	-843.18896	-11.09999	-643.01538	727.29736	-10.04927	-648.16498	-750.97235	21.49622	491.55872	691.43109	21.22856	500.82822	-57.14111	1277.78113	-1006.34888	
4329	43.280	-843.89935	-12.75013	-643.32520	726.41907	-11.30951	-648.44611	-751.82336	22.47619	491.27054	690.31848	22.14030	500.40646	-57.70044	1275.61328	-1009.23499	
4330	43.290	-844.55267	-13.78045	-643.58838	725.62122	-12.00786	-648.78192	-752.11462	22.87420	491.08878	689.83051	23.33232	500.04974	-58.08857	1273.54260	-1011.87683	
4331	43.300	-844.95770	-15.29560	-643.86713	725.11768	-13.84882	-649.05365	-753.13171	24.40843	490.66837	689.32690	24.03024	499.64774	-59.04607	1271.26245	-1014.58386	
4332	43.310	-845.76141	-17.10895	-644.21124	724.35858	-16.04014	-649.28687	-753.84821	25.43924	490.28116	688.38190	24.74311	499.26498	-59.91241	1269.40979	-1017.29510	
4333	43.320	-846.48145	-18.53592	-644.52795	723.77148	-16.99189	-649.60443	-754.43494	26.33438	489.92297	687.66278	25.99954	498.94043	-60.18000	1267.20081	-1019.56116	
4334	43.330	-847.04645	-19.68501	-644.78381	723.10516	-17.96304	-649.84326	-754.96503	26.97935	489.47107	687.28888	26.79579	498.71597	-60.96091	1265.21021	-1022.30945	
4335	43.340	-847.55835	-20.65406	-644.93146	722.49756	-19.36344	-650.13953	-756.01880	28.35973	489.18539	686.88770	27.85459	498.44568	-61.31735	1263.09595	-1025.00159	
4336	43.350	-848.21844	-22.02252	-645.06891	721.93658	-20.63952	-650.45306	-756.25220	28.85178	488.84595	686.08118	28.61650	497.98563	-62.13170	1261.51941	-1027.49695	
4337	43.360	-848.73254	-22.77716	-645.26276	721.65363	-21.55352	-650.84161	-756.84332	29.63286	488.57947	685.42511	29.17800	497.62003	-62.52512	1259.44470	-1030.02563	
4338	43.370	-849.22021	-24.56091	-645.58423	721.08826	-22.53738	-650.91449	-757.14777	30.37867	488.36945	685.03546	30.25995	497.29565	-63.03874	1257.76343	-1032.73877	
4339	43.380	-849.66150	-25.71466	-645.64185	720.68799	-24.11118	-651.12311	-757.57544	31.07255	488.07486	684.41052	30.61322	497.50916	-63.56440	1255.91589	-1035.10852	
4340	43.390	-850.00092	-26.62490	-645.82898	720.24463	-25.09777	-651.24896	-757.92303	31.68468	487.77859	684.44305	31.66435	497.38840	-63.71059	1254.10400	-1037.58313	
4341	43.400	-850.17993	-27.43937	-646.30243	720.00073	-25.96774	-651.36139	-758.36383	32.77919	487.36270	684.34552	32.61107	497.04688	-64.43035	1252.63318	-1040.07239	
4342	43.410	-850.67474	-28.89123	-646.04395	719.72528	-27.27625	-651.56512	-758.43677	33.22398	487.23840	684.08032	33.46860	496.66153	-64.66869	1250.58008	-1042.40222	
4343	43.420	-850.77783	-29.89410	-646.54199	719.49854	-28.22589	-651.77911	-758.80005	33.95900	486.78116	683.56738	34.17358	496.40976	-64.86225	1248.90039	-1044.67859	
